<svg width="220" height="39" viewBox="0 0 220 39" fill="none" xmlns="http://www.w3.org/2000/svg">
<path d="M28.6638 27.4209C30.9598 24.6313 32.3338 21.0565 32.3338 17.1665C32.3338 13.2706 30.9598 9.70174 28.6638 6.91211L18.4094 17.1665L28.6638 27.4209Z" fill="#1ABCE5"/>
<path d="M26.4213 29.6643L16.1669 19.4099L5.91249 29.6643L2.5459 33.0309C6.20394 36.1774 10.9624 38.0748 16.1669 38.0748C21.3714 38.0748 26.1299 36.1715 29.7879 33.0309L26.4213 29.6643ZM16.1372 24.3527L20.3662 28.6056H11.9081L16.1372 24.3527Z" fill="white"/>
<path d="M16.1668 1C7.23876 1 0 8.23876 0 17.1668C0 21.0627 1.37994 24.6315 3.66994 27.4212L26.4212 4.66994C23.6315 2.374 20.0627 1 16.1668 1Z" fill="#1ABCE5"/>
<path d="M50.7483 7.89478C54.8108 7.89478 56.8985 10.1729 56.8985 10.1729L55.4413 12.4272C55.4413 12.4272 53.5379 10.6666 50.891 10.6666C47.3698 10.6666 45.3058 13.2956 45.3058 16.3945C45.3058 19.5648 47.4412 22.3544 50.9148 22.3544C53.7996 22.3544 55.7506 20.2429 55.7506 20.2429L57.3446 22.4258C57.3446 22.4258 55.0428 25.1262 50.7959 25.1262C45.7043 25.1262 42.1831 21.3492 42.1831 16.4421C42.1831 11.6004 45.8471 7.89478 50.7483 7.89478Z" fill="white"/>
<path d="M65.8152 17.3273H66.2137V17.1608C66.2137 15.5905 65.2263 15.0492 63.9118 15.0492C62.1987 15.0492 60.6285 16.1972 60.6285 16.1972L59.5043 14.0619C59.5043 14.0619 61.3601 12.5808 64.1973 12.5808C67.3438 12.5808 69.1698 14.3176 69.1698 17.3452V24.8338H66.4219V23.8464C66.4219 23.3765 66.4694 23.0018 66.4694 23.0018H66.4219C66.4456 23.0018 65.5059 25.1133 62.7876 25.1133C60.6523 25.1133 58.7251 23.775 58.7251 21.3839C58.731 17.5831 63.8701 17.3273 65.8152 17.3273ZM63.5371 22.7936C65.1073 22.7936 66.2375 21.1043 66.2375 19.6471V19.3675H65.72C64.1973 19.3675 61.7289 19.5816 61.7289 21.2471C61.7348 22.0441 62.3177 22.7936 63.5371 22.7936Z" fill="white"/>
<path d="M72.043 8.17383H74.9991V20.6588C74.9991 21.9733 75.4452 22.3004 76.2185 22.3004C76.4505 22.3004 76.6646 22.2766 76.6646 22.2766V24.8819C76.6646 24.8819 76.2185 24.9532 75.7248 24.9532C74.0831 24.9532 72.043 24.5309 72.043 21.1049V8.17383Z" fill="white"/>
<path d="M78.7041 8.17383H81.6603V20.6588C81.6603 21.9733 82.1064 22.3004 82.8796 22.3004C83.1116 22.3004 83.3257 22.2766 83.3257 22.2766V24.8819C83.3257 24.8819 82.8796 24.9532 82.3859 24.9532C80.7443 24.9532 78.7041 24.5309 78.7041 21.1049V8.17383Z" fill="white"/>
<path d="M85.9845 15.4248H84.438V13.0575H86.0558V9.60767H88.9644V13.0575H91.6886V15.4248H88.9644V20.0703C88.9644 22.0391 90.5109 22.3246 91.3377 22.3246C91.6648 22.3246 91.879 22.277 91.879 22.277V24.8822C91.879 24.8822 91.528 24.9536 90.963 24.9536C89.2975 24.9536 85.9904 24.4599 85.9904 20.445V15.4248H85.9845Z" fill="white"/>
<path d="M99.992 12.5862C103.65 12.5862 106.588 15.1914 106.588 18.8495C106.588 22.5372 103.656 25.1187 100.016 25.1187C96.3578 25.1187 93.4194 22.5372 93.4194 18.8495C93.4194 15.1914 96.3578 12.5862 99.992 12.5862ZM100.016 22.5848C101.943 22.5848 103.561 21.08 103.561 18.8554C103.561 16.6487 101.943 15.126 100.016 15.126C98.0708 15.126 96.447 16.6487 96.447 18.8554C96.4529 21.08 98.0708 22.5848 100.016 22.5848Z" fill="white"/>
<path d="M108.89 12.8665H111.87V19.9565C111.87 21.4138 112.245 22.3952 113.726 22.3952C115.885 22.3952 117.081 20.4918 117.081 18.3565V12.8665H120.061V24.8339H117.2V23.4718C117.2 23.0019 117.247 22.6272 117.247 22.6272H117.2C116.611 23.8703 115.088 25.1135 113.048 25.1135C110.49 25.1135 108.896 23.8227 108.896 20.5632V12.8665H108.89Z" fill="white"/>
<path d="M128.912 12.5862C132.034 12.5862 133.509 14.3706 133.509 14.3706L132.195 16.4108C132.195 16.4108 130.952 15.12 129.072 15.12C126.865 15.12 125.432 16.7855 125.432 18.8257C125.432 20.8421 126.889 22.5789 129.161 22.5789C131.178 22.5789 132.683 21.0562 132.683 21.0562L133.831 23.1677C133.831 23.1677 132.118 25.1127 128.9 25.1127C124.932 25.1127 122.398 22.3231 122.398 18.8495C122.41 15.4472 124.944 12.5862 128.912 12.5862Z" fill="white"/>
<path d="M136.073 8.17383H139.053V13.9494C139.053 14.5382 139.005 14.9605 139.005 14.9605H139.053C139.642 13.8126 141.093 12.5873 143.181 12.5873C145.834 12.5873 147.333 13.9732 147.333 17.1375V24.8343H144.376V17.7502C144.376 16.2929 144.002 15.3115 142.473 15.3115C140.903 15.3115 139.677 16.3464 139.231 17.7977C139.089 18.2676 139.041 18.7851 139.041 19.3442V24.8343H136.061V8.17383H136.073Z" fill="white"/>
<path opacity="0.2" d="M158 38V0" stroke="white" stroke-width="1.06122"/>
<path d="M168.66 5.72798C168.66 3.27998 170.424 1.41998 172.896 1.41998C173.964 1.41998 175.14 1.74398 175.944 2.51198L175.5 3.12398C174.84 2.54798 173.832 2.19998 172.92 2.19998C170.868 2.19998 169.524 3.73598 169.524 5.71598C169.524 7.71998 170.868 9.36398 172.956 9.36398C173.952 9.36398 174.96 8.95598 175.68 8.24798L176.16 8.83598C175.452 9.53198 174.42 10.144 172.932 10.144C170.364 10.144 168.66 8.18798 168.66 5.72798ZM177.06 6.98798C177.06 5.00798 178.416 3.81998 180.048 3.81998C181.716 3.81998 182.568 5.10398 182.568 6.60398C182.568 6.73598 182.556 6.87998 182.544 7.01198H177.912C177.948 8.54798 179.004 9.39998 180.252 9.39998C180.912 9.39998 181.596 9.12398 182.088 8.67998L182.46 9.30398C181.896 9.81998 181.02 10.144 180.228 10.144C178.428 10.144 177.06 8.84798 177.06 6.98798ZM177.948 6.36398H181.74C181.692 5.10398 180.924 4.49198 180.024 4.49198C179.016 4.49198 178.14 5.15198 177.948 6.36398ZM184.101 12.4V3.96398H184.881V4.59998C184.881 4.86398 184.845 5.06798 184.845 5.06798H184.869C185.241 4.28798 186.033 3.81998 186.969 3.81998C188.601 3.81998 189.597 5.11598 189.597 6.97598C189.597 8.89598 188.469 10.144 186.897 10.144C186.045 10.144 185.301 9.69998 184.905 8.94398H184.881C184.881 8.94398 184.917 9.15998 184.917 9.47198V12.4H184.101ZM184.893 6.99998C184.893 8.21198 185.577 9.41198 186.813 9.41198C187.881 9.41198 188.769 8.52398 188.769 6.98798C188.769 5.51198 187.977 4.56398 186.849 4.56398C185.841 4.56398 184.893 5.28398 184.893 6.99998ZM191.167 9.99998V3.96398H193.351C194.575 3.96398 195.343 4.50398 195.343 5.49998C195.343 6.12398 195.019 6.61598 194.431 6.83198V6.85598C195.211 7.01198 195.655 7.59998 195.655 8.30798C195.655 9.35198 194.827 9.99998 193.471 9.99998H191.167ZM191.983 6.57998H193.267C194.083 6.57998 194.503 6.19598 194.503 5.54798C194.503 4.89998 194.071 4.58798 193.219 4.58798H191.983V6.57998ZM191.983 9.36398H193.363C194.359 9.36398 194.815 8.94398 194.815 8.29598C194.815 7.58798 194.287 7.20398 193.351 7.20398H191.983V9.36398ZM197.202 9.99998V3.96398H197.994V7.92398C197.994 8.29598 197.97 8.79998 197.958 8.82398H197.982C198.006 8.77598 198.366 8.25998 198.606 7.92398L201.57 3.96398H202.35V9.99998H201.546V6.02798C201.546 5.67998 201.582 5.19998 201.582 5.15198H201.558C201.546 5.21198 201.174 5.69198 200.946 6.02798L197.982 9.99998H197.202ZM203.884 6.98798C203.884 5.12798 205.276 3.81998 207.052 3.81998C207.844 3.81998 208.72 4.09598 209.26 4.68398L208.84 5.29598C208.42 4.86398 207.748 4.55198 207.076 4.55198C205.756 4.55198 204.724 5.54798 204.724 6.98798C204.724 8.40398 205.756 9.39998 207.1 9.39998C207.796 9.39998 208.552 9.09998 209.032 8.57198L209.404 9.18398C208.876 9.77198 207.976 10.144 207.052 10.144C205.264 10.144 203.884 8.85998 203.884 6.98798ZM168.972 25.4V16.964H169.752V17.6C169.752 17.864 169.716 18.068 169.716 18.068H169.74C170.112 17.288 170.904 16.82 171.84 16.82C173.472 16.82 174.468 18.116 174.468 19.976C174.468 21.896 173.34 23.144 171.768 23.144C170.916 23.144 170.172 22.7 169.776 21.944H169.752C169.752 21.944 169.788 22.16 169.788 22.472V25.4H168.972ZM169.764 20C169.764 21.212 170.448 22.412 171.684 22.412C172.752 22.412 173.64 21.524 173.64 19.988C173.64 18.512 172.848 17.564 171.72 17.564C170.712 17.564 169.764 18.284 169.764 20ZM175.51 21.38C175.51 19.4 178.03 19.28 179.182 19.28H179.542V19.112C179.542 17.948 178.906 17.552 178.054 17.552C177.442 17.552 176.83 17.768 176.338 18.128L175.966 17.504C176.446 17.096 177.298 16.82 178.102 16.82C179.554 16.82 180.358 17.624 180.358 19.136V23H179.578V22.292C179.578 21.992 179.614 21.788 179.614 21.788H179.59C179.278 22.52 178.522 23.144 177.55 23.144C176.53 23.144 175.51 22.544 175.51 21.38ZM176.338 21.308C176.338 21.872 176.794 22.46 177.694 22.46C178.858 22.46 179.542 21.26 179.542 20.204V19.928H179.194C178.258 19.928 176.338 19.964 176.338 21.308ZM181.626 22.268L182.058 21.704C182.298 21.956 182.862 22.448 183.678 22.448C184.41 22.448 185.13 22.076 185.13 21.272C185.13 20.588 184.626 20.204 183.666 20.204H182.934V19.556H183.57C184.386 19.556 184.914 19.232 184.914 18.536C184.914 17.852 184.41 17.516 183.666 17.516C183.078 17.516 182.598 17.732 182.19 18.056L181.83 17.48C182.25 17.132 182.91 16.82 183.786 16.82C184.902 16.82 185.754 17.36 185.754 18.44C185.754 19.196 185.346 19.616 184.83 19.82V19.844C185.49 20.012 185.97 20.492 185.97 21.296C185.97 22.52 184.89 23.144 183.726 23.144C182.778 23.144 182.07 22.7 181.626 22.268ZM187.511 23V16.964H189.695C190.919 16.964 191.687 17.504 191.687 18.5C191.687 19.124 191.363 19.616 190.775 19.832V19.856C191.555 20.012 191.999 20.6 191.999 21.308C191.999 22.352 191.171 23 189.815 23H187.511ZM188.327 19.58H189.611C190.427 19.58 190.847 19.196 190.847 18.548C190.847 17.9 190.415 17.588 189.563 17.588H188.327V19.58ZM188.327 22.364H189.707C190.703 22.364 191.159 21.944 191.159 21.296C191.159 20.588 190.631 20.204 189.695 20.204H188.327V22.364ZM193.546 23V16.964H194.338V20.924C194.338 21.296 194.314 21.8 194.302 21.824H194.326C194.35 21.776 194.71 21.26 194.95 20.924L197.914 16.964H198.694V23H197.89V19.028C197.89 18.68 197.926 18.2 197.926 18.152H197.902C197.89 18.212 197.518 18.692 197.29 19.028L194.326 23H193.546ZM202.136 23V17.684H199.94V16.964H205.16V17.684H202.952V23H202.136ZM206.413 23V16.964H207.205V20.924C207.205 21.296 207.181 21.8 207.169 21.824H207.193C207.217 21.776 207.577 21.26 207.817 20.924L210.781 16.964H211.561V23H210.757V19.028C210.757 18.68 210.793 18.2 210.793 18.152H210.769C210.757 18.212 210.385 18.692 210.157 19.028L207.193 23H206.413ZM212.891 23L214.343 20.924C214.463 20.732 214.619 20.564 214.619 20.564V20.54C213.911 20.396 213.227 19.784 213.227 18.8C213.227 17.588 214.115 16.964 215.363 16.964H217.487V23H216.671V20.684H215.423L213.839 23H212.891ZM215.459 20.048H216.671V17.588H215.519C214.619 17.588 214.067 17.936 214.067 18.8C214.067 19.616 214.679 20.048 215.459 20.048ZM168.708 32.58C168.708 30.54 169.188 29.22 171.192 28.308L173.424 27.264L173.724 27.948L171.396 29.016C170.028 29.664 169.548 30.528 169.464 31.8H169.488C170.028 30.828 170.844 30.528 171.744 30.528C173.22 30.528 174.3 31.56 174.3 33.312C174.3 34.98 173.172 36.144 171.552 36.144C169.572 36.144 168.708 34.62 168.708 32.58ZM169.596 33.3C169.596 34.644 170.472 35.424 171.528 35.424C172.596 35.424 173.46 34.644 173.46 33.324C173.46 31.992 172.596 31.212 171.576 31.212C170.4 31.212 169.596 32.124 169.596 33.3ZM175.886 36V29.964H176.678V33.924C176.678 34.296 176.654 34.8 176.642 34.824H176.666C176.69 34.776 177.05 34.26 177.29 33.924L180.254 29.964H181.034V36H180.23V32.028C180.23 31.68 180.266 31.2 180.266 31.152H180.242C180.23 31.212 179.858 31.692 179.63 32.028L176.666 36H175.886ZM182.364 35.268L182.796 34.704C183.036 34.956 183.6 35.448 184.416 35.448C185.148 35.448 185.868 35.076 185.868 34.272C185.868 33.588 185.364 33.204 184.404 33.204H183.672V32.556H184.308C185.124 32.556 185.652 32.232 185.652 31.536C185.652 30.852 185.148 30.516 184.404 30.516C183.816 30.516 183.336 30.732 182.928 31.056L182.568 30.48C182.988 30.132 183.648 29.82 184.524 29.82C185.64 29.82 186.492 30.36 186.492 31.44C186.492 32.196 186.084 32.616 185.568 32.82V32.844C186.228 33.012 186.708 33.492 186.708 34.296C186.708 35.52 185.628 36.144 184.464 36.144C183.516 36.144 182.808 35.7 182.364 35.268ZM188.249 36V29.964H189.065V32.544H192.593V29.964H193.409V36H192.593V33.264H189.065V36H188.249ZM194.943 32.988C194.943 31.008 196.299 29.82 197.931 29.82C199.599 29.82 200.451 31.104 200.451 32.604C200.451 32.736 200.439 32.88 200.427 33.012H195.795C195.831 34.548 196.887 35.4 198.135 35.4C198.795 35.4 199.479 35.124 199.971 34.68L200.343 35.304C199.779 35.82 198.903 36.144 198.111 36.144C196.311 36.144 194.943 34.848 194.943 32.988ZM195.831 32.364H199.623C199.575 31.104 198.807 30.492 197.907 30.492C196.899 30.492 196.023 31.152 195.831 32.364ZM201.576 32.988C201.576 31.128 202.968 29.82 204.744 29.82C205.536 29.82 206.412 30.096 206.952 30.684L206.532 31.296C206.112 30.864 205.44 30.552 204.768 30.552C203.448 30.552 202.416 31.548 202.416 32.988C202.416 34.404 203.448 35.4 204.792 35.4C205.488 35.4 206.244 35.1 206.724 34.572L207.096 35.184C206.568 35.772 205.668 36.144 204.744 36.144C202.956 36.144 201.576 34.86 201.576 32.988ZM207.96 34.38C207.96 32.4 210.48 32.28 211.632 32.28H211.992V32.112C211.992 30.948 211.356 30.552 210.504 30.552C209.892 30.552 209.28 30.768 208.788 31.128L208.416 30.504C208.896 30.096 209.748 29.82 210.552 29.82C212.004 29.82 212.808 30.624 212.808 32.136V36H212.028V35.292C212.028 34.992 212.064 34.788 212.064 34.788H212.04C211.728 35.52 210.972 36.144 210 36.144C208.98 36.144 207.96 35.544 207.96 34.38ZM208.788 34.308C208.788 34.872 209.244 35.46 210.144 35.46C211.308 35.46 211.992 34.26 211.992 33.204V32.928H211.644C210.708 32.928 208.788 32.964 208.788 34.308Z" fill="white"/>
</svg>
