<svg width="280" height="50" viewBox="0 0 280 50" fill="none" xmlns="http://www.w3.org/2000/svg">
<g clip-path="url(#clip0_8139_12381)">
<path d="M36.4807 35.0151C39.4029 31.4529 41.1516 26.8881 41.1516 21.9207C41.1516 16.9459 39.4029 12.3886 36.4807 8.82642L23.4297 21.9207L36.4807 35.0151Z" fill="#1F282C"/>
<path d="M33.6212 37.88L20.5702 24.7856L7.51913 37.88L3.23438 42.179C7.89006 46.1969 13.9463 48.6198 20.5702 48.6198C27.1941 48.6198 33.2504 46.1893 37.906 42.179L33.6212 37.88ZM20.5324 31.0973L25.9148 36.5281H15.1499L20.5324 31.0973Z" fill="white"/>
<path d="M20.5759 1.27686C9.21297 1.27686 0 10.5204 0 21.921C0 26.8959 1.75629 31.4531 4.67083 35.0154L33.627 5.96318C30.0764 3.03138 25.5343 1.27686 20.5759 1.27686Z" fill="#1F282C"/>
<path d="M64.5808 10.0811C69.7513 10.0811 72.4084 12.9901 72.4084 12.9901L70.5538 15.8687C70.5538 15.8687 68.1312 13.6205 64.7625 13.6205C60.2809 13.6205 57.654 16.9776 57.654 20.9348C57.654 24.9831 60.3718 28.5452 64.7928 28.5452C68.4643 28.5452 70.9474 25.849 70.9474 25.849L72.9761 28.6364C72.9761 28.6364 70.0466 32.0847 64.6414 32.0847C58.1612 32.0847 53.6797 27.2617 53.6797 20.9955C53.6797 14.8129 58.343 10.0811 64.5808 10.0811Z" fill="white"/>
<path d="M83.7738 22.1262H84.2809V21.9136C84.2809 19.9084 83.0243 19.2172 81.3513 19.2172C79.1709 19.2172 77.1725 20.6831 77.1725 20.6831L75.7417 17.9565C75.7417 17.9565 78.1036 16.0652 81.7146 16.0652C85.7193 16.0652 88.0433 18.283 88.0433 22.1491V31.7116H84.5459V30.4508C84.5459 29.8507 84.6064 29.3723 84.6064 29.3723H84.5459C84.5761 29.3723 83.3801 32.0685 79.9205 32.0685C77.2028 32.0685 74.75 30.3596 74.75 27.3063C74.7575 22.4529 81.2982 22.1262 83.7738 22.1262ZM80.8744 29.1064C82.8728 29.1064 84.3112 26.9493 84.3112 25.0885V24.7315H83.6526C81.7146 24.7315 78.573 25.0048 78.573 27.1316C78.5805 28.1493 79.3224 29.1064 80.8744 29.1064Z" fill="white"/>
<path d="M91.6875 10.4373H95.4498V26.3799C95.4498 28.0585 96.0176 28.4762 97.0018 28.4762C97.297 28.4762 97.5695 28.4458 97.5695 28.4458V31.7726C97.5695 31.7726 97.0018 31.8636 96.3734 31.8636C94.284 31.8636 91.6875 31.3244 91.6875 26.9496V10.4373Z" fill="white"/>
<path d="M100.164 10.4373H103.926V26.3799C103.926 28.0585 104.494 28.4762 105.478 28.4762C105.774 28.4762 106.046 28.4458 106.046 28.4458V31.7726C106.046 31.7726 105.478 31.8636 104.85 31.8636C102.761 31.8636 100.164 31.3244 100.164 26.9496V10.4373Z" fill="white"/>
<path d="M109.429 19.6967H107.461V16.6738H109.52V12.2686H113.222V16.6738H116.689V19.6967H113.222V25.6288C113.222 28.1428 115.19 28.5074 116.242 28.5074C116.659 28.5074 116.931 28.4466 116.931 28.4466V31.7733C116.931 31.7733 116.485 31.8645 115.765 31.8645C113.646 31.8645 109.437 31.2341 109.437 26.1073V19.6967H109.429Z" fill="white"/>
<path d="M127.264 16.0715C131.919 16.0715 135.658 19.3982 135.658 24.0694C135.658 28.7784 131.927 32.0749 127.294 32.0749C122.638 32.0749 118.898 28.7784 118.898 24.0694C118.898 19.3982 122.638 16.0715 127.264 16.0715ZM127.294 28.8392C129.747 28.8392 131.806 26.9177 131.806 24.077C131.806 21.2591 129.747 19.3147 127.294 19.3147C124.818 19.3147 122.752 21.2591 122.752 24.077C122.759 26.9177 124.818 28.8392 127.294 28.8392Z" fill="white"/>
<path d="M138.586 16.4292H142.379V25.4828C142.379 27.3437 142.856 28.5969 144.741 28.5969C147.489 28.5969 149.011 26.1663 149.011 23.4396V16.4292H152.804V31.711H149.162V29.9716C149.162 29.3716 149.222 28.8931 149.222 28.8931H149.162C148.413 30.4805 146.474 32.068 143.878 32.068C140.622 32.068 138.594 30.4197 138.594 26.2575V16.4292H138.586Z" fill="white"/>
<path d="M164.072 16.0715C168.045 16.0715 169.923 18.3501 169.923 18.3501L168.25 20.9554C168.25 20.9554 166.668 19.3071 164.275 19.3071C161.467 19.3071 159.643 21.4338 159.643 24.0391C159.643 26.6139 161.497 28.8317 164.389 28.8317C166.956 28.8317 168.871 26.8873 168.871 26.8873L170.332 29.5836C170.332 29.5836 168.152 32.0672 164.057 32.0672C159.006 32.0672 155.781 28.5051 155.781 24.0694C155.797 19.7249 159.022 16.0715 164.072 16.0715Z" fill="white"/>
<path d="M173.187 10.4373H176.98V17.8124C176.98 18.5642 176.919 19.1035 176.919 19.1035H176.98C177.729 17.6377 179.576 16.073 182.234 16.073C185.61 16.073 187.518 17.8428 187.518 21.8834V31.7118H183.755V22.6658C183.755 20.8049 183.279 19.5517 181.333 19.5517C179.334 19.5517 177.774 20.8732 177.206 22.7264C177.026 23.3265 176.965 23.9873 176.965 24.7012V31.7118H173.172V10.4373H173.187Z" fill="white"/>
<path opacity="0.2" d="M201.086 48.5238V-0.000244141" stroke="white" stroke-width="1.33724"/>
<path d="M214.652 7.33978C214.652 4.25506 216.875 1.91129 219.99 1.91129C221.336 1.91129 222.817 2.31956 223.831 3.28731L223.271 4.05849C222.439 3.33267 221.169 2.89416 220.02 2.89416C217.434 2.89416 215.741 4.82967 215.741 7.32465C215.741 9.84988 217.434 11.9215 220.065 11.9215C221.32 11.9215 222.591 11.4074 223.498 10.5152L224.103 11.2562C223.211 12.1332 221.91 12.9044 220.035 12.9044C216.799 12.9044 214.652 10.4396 214.652 7.33978ZM225.237 8.92749C225.237 6.43251 226.946 4.93551 229.002 4.93551C231.104 4.93551 232.177 6.55348 232.177 8.44362C232.177 8.60995 232.162 8.7914 232.147 8.95774H226.31C226.356 10.8932 227.687 11.9668 229.259 11.9668C230.091 11.9668 230.953 11.6191 231.573 11.0596L232.041 11.8459C231.331 12.4961 230.227 12.9044 229.229 12.9044C226.961 12.9044 225.237 11.2713 225.237 8.92749ZM226.356 8.1412H231.134C231.074 6.55348 230.106 5.7823 228.972 5.7823C227.702 5.7823 226.598 6.61396 226.356 8.1412ZM235.092 5.91839C235.092 6.25105 235.046 6.50811 235.046 6.50811H235.077C235.545 5.52524 236.543 4.93551 237.723 4.93551C239.779 4.93551 241.034 6.5686 241.034 8.91237C241.034 11.3318 239.613 12.9044 237.632 12.9044C236.559 12.9044 235.621 12.3449 235.122 11.3922H235.092C235.092 11.3922 235.137 11.6644 235.137 12.0576V15.7471H234.109V5.11697H235.092V5.91839ZM235.107 8.94262C235.107 10.4699 235.969 11.982 237.526 11.982C238.872 11.982 239.991 10.863 239.991 8.92749C239.991 7.0676 238.993 5.87303 237.572 5.87303C236.302 5.87303 235.107 6.78029 235.107 8.94262ZM245.765 5.11697C247.308 5.11697 248.275 5.79742 248.275 7.05247C248.275 7.83877 247.867 8.45874 247.126 8.73092V8.76116C248.109 8.95774 248.669 9.69867 248.669 10.5908C248.669 11.9064 247.625 12.7229 245.917 12.7229H243.013V5.11697H245.765ZM244.042 11.9215H245.78C247.036 11.9215 247.61 11.3922 247.61 10.5757C247.61 9.68355 246.945 9.19968 245.765 9.19968H244.042V11.9215ZM244.042 8.41338H245.66C246.688 8.41338 247.217 7.9295 247.217 7.11296C247.217 6.29642 246.673 5.90327 245.599 5.90327H244.042V8.41338ZM251.616 10.1069C251.616 10.5757 251.586 11.2108 251.571 11.241H251.601C251.631 11.1805 252.085 10.5303 252.387 10.1069L256.122 5.11697H257.105V12.7229H256.092V7.7178C256.092 7.27929 256.137 6.67445 256.137 6.61396H256.107C256.092 6.68957 255.623 7.29441 255.336 7.7178L251.601 12.7229H250.618V5.11697H251.616V10.1069ZM259.038 8.92749C259.038 6.58372 260.792 4.93551 263.03 4.93551C264.028 4.93551 265.132 5.2833 265.812 6.02424L265.283 6.79541C264.754 6.25105 263.907 5.8579 263.06 5.8579C261.397 5.8579 260.096 7.11296 260.096 8.92749C260.096 10.7118 261.397 11.9668 263.09 11.9668C263.967 11.9668 264.92 11.5888 265.525 10.9235L265.994 11.6947C265.328 12.4356 264.194 12.9044 263.03 12.9044C260.777 12.9044 259.038 11.2864 259.038 8.92749ZM216.028 23.9184C216.028 24.2511 215.983 24.5081 215.983 24.5081H216.013C216.482 23.5252 217.48 22.9355 218.659 22.9355C220.716 22.9355 221.971 24.5686 221.971 26.9124C221.971 29.3318 220.549 30.9044 218.568 30.9044C217.495 30.9044 216.557 30.3449 216.058 29.3922H216.028C216.028 29.3922 216.073 29.6644 216.073 30.0576V33.7471H215.045V23.117H216.028V23.9184ZM216.043 26.9426C216.043 28.4699 216.905 29.982 218.463 29.982C219.808 29.982 220.927 28.863 220.927 26.9275C220.927 25.0676 219.929 23.873 218.508 23.873C217.238 23.873 216.043 24.7803 216.043 26.9426ZM223.284 28.6815C223.284 26.1866 226.46 26.0353 227.911 26.0353H228.365V25.8237C228.365 24.3569 227.563 23.8579 226.49 23.8579C225.719 23.8579 224.947 24.1301 224.327 24.5837L223.859 23.7974C224.464 23.2833 225.537 22.9355 226.55 22.9355C228.38 22.9355 229.393 23.9486 229.393 25.8539V30.7229H228.41V29.8308C228.41 29.4527 228.456 29.1957 228.456 29.1957H228.425C228.032 30.1181 227.08 30.9044 225.855 30.9044C224.569 30.9044 223.284 30.1483 223.284 28.6815ZM224.327 28.5908C224.327 29.3015 224.902 30.0424 226.036 30.0424C227.503 30.0424 228.365 28.5303 228.365 27.1997V26.8519H227.926C226.747 26.8519 224.327 26.8973 224.327 28.5908ZM231.534 29.0898C231.837 29.4074 232.547 30.0273 233.576 30.0273C234.498 30.0273 235.405 29.5586 235.405 28.5455C235.405 27.6836 234.77 27.1997 233.56 27.1997H232.638V26.3831H233.44C234.468 26.3831 235.133 25.9749 235.133 25.0978C235.133 24.2359 234.498 23.8125 233.56 23.8125C232.82 23.8125 232.215 24.0847 231.701 24.493L231.247 23.7672C231.776 23.3287 232.608 22.9355 233.712 22.9355C235.118 22.9355 236.192 23.616 236.192 24.9769C236.192 25.9295 235.677 26.4587 235.027 26.7158V26.746C235.859 26.9577 236.464 27.5626 236.464 28.5757C236.464 30.1181 235.103 30.9044 233.636 30.9044C232.442 30.9044 231.549 30.3449 230.99 29.8005L231.534 29.0898ZM241.158 23.117C242.701 23.117 243.668 23.7974 243.668 25.0525C243.668 25.8388 243.26 26.4587 242.519 26.7309V26.7612C243.502 26.9577 244.061 27.6987 244.061 28.5908C244.061 29.9064 243.018 30.7229 241.309 30.7229H238.406V23.117H241.158ZM239.434 29.9215H241.173C242.428 29.9215 243.003 29.3922 243.003 28.5757C243.003 27.6836 242.338 27.1997 241.158 27.1997H239.434V29.9215ZM239.434 26.4134H241.052C242.081 26.4134 242.61 25.9295 242.61 25.113C242.61 24.2964 242.065 23.9033 240.992 23.9033H239.434V26.4134ZM247.009 28.1069C247.009 28.5757 246.979 29.2108 246.964 29.241H246.994C247.024 29.1805 247.478 28.5303 247.78 28.1069L251.515 23.117H252.498V30.7229H251.485V25.7178C251.485 25.2793 251.53 24.6744 251.53 24.614H251.5C251.485 24.6896 251.016 25.2944 250.729 25.7178L246.994 30.7229H246.011V23.117H247.009V28.1069ZM254.068 24.0242V23.117H260.646V24.0242H257.863V30.7229H256.835V24.0242H254.068ZM263.223 28.1069C263.223 28.5757 263.193 29.2108 263.177 29.241H263.208C263.238 29.1805 263.692 28.5303 263.994 28.1069L267.729 23.117H268.712V30.7229H267.699V25.7178C267.699 25.2793 267.744 24.6744 267.744 24.614H267.714C267.699 24.6896 267.23 25.2944 266.943 25.7178L263.208 30.7229H262.225V23.117H263.223V28.1069ZM272.217 28.1069C272.368 27.865 272.565 27.6533 272.565 27.6533V27.6231C271.673 27.4416 270.811 26.6704 270.811 25.4305C270.811 23.9033 271.93 23.117 273.502 23.117H276.179V30.7229H275.151V27.8045H273.578L271.582 30.7229H270.388L272.217 28.1069ZM271.869 25.4305C271.869 26.4587 272.641 27.0031 273.623 27.0031H275.151V23.9033H273.699C272.565 23.9033 271.869 24.3418 271.869 25.4305ZM214.712 44.4134C214.712 41.8428 215.317 40.1795 217.843 39.0303L220.655 37.7147L221.033 38.5766L218.1 39.9224C216.376 40.7389 215.771 41.8277 215.665 43.4305H215.695C216.376 42.2057 217.404 41.8277 218.538 41.8277C220.398 41.8277 221.759 43.1281 221.759 45.3358C221.759 47.4376 220.338 48.9044 218.296 48.9044C215.801 48.9044 214.712 46.984 214.712 44.4134ZM215.831 45.3206C215.831 47.0142 216.935 47.9971 218.266 47.9971C219.612 47.9971 220.7 47.0142 220.7 45.3509C220.7 43.6724 219.612 42.6896 218.326 42.6896C216.845 42.6896 215.831 43.8388 215.831 45.3206ZM224.755 46.1069C224.755 46.5757 224.725 47.2108 224.71 47.241H224.74C224.771 47.1805 225.224 46.5303 225.527 46.1069L229.262 41.117H230.244V48.7229H229.231V43.7178C229.231 43.2793 229.277 42.6744 229.277 42.614H229.246C229.231 42.6896 228.763 43.2944 228.475 43.7178L224.74 48.7229H223.757V41.117H224.755V46.1069ZM232.465 47.0898C232.767 47.4074 233.478 48.0273 234.506 48.0273C235.428 48.0273 236.336 47.5586 236.336 46.5455C236.336 45.6836 235.7 45.1997 234.491 45.1997H233.568V44.3831H234.37C235.398 44.3831 236.063 43.9749 236.063 43.0978C236.063 42.2359 235.428 41.8125 234.491 41.8125C233.75 41.8125 233.145 42.0847 232.631 42.493L232.177 41.7672C232.706 41.3287 233.538 40.9355 234.642 40.9355C236.048 40.9355 237.122 41.616 237.122 42.9769C237.122 43.9295 236.608 44.4587 235.958 44.7158V44.746C236.789 44.9577 237.394 45.5626 237.394 46.5757C237.394 48.1181 236.033 48.9044 234.566 48.9044C233.372 48.9044 232.48 48.3449 231.92 47.8005L232.465 47.0898ZM240.365 41.117V44.368H244.81V41.117H245.838V48.7229H244.81V45.2753H240.365V48.7229H239.336V41.117H240.365ZM247.771 44.9275C247.771 42.4325 249.48 40.9355 251.536 40.9355C253.638 40.9355 254.712 42.5535 254.712 44.4436C254.712 44.61 254.696 44.7914 254.681 44.9577H248.845C248.89 46.8932 250.221 47.9668 251.793 47.9668C252.625 47.9668 253.487 47.6191 254.107 47.0596L254.575 47.8459C253.865 48.4961 252.761 48.9044 251.763 48.9044C249.495 48.9044 247.771 47.2713 247.771 44.9275ZM248.89 44.1412H253.668C253.608 42.5535 252.64 41.7823 251.506 41.7823C250.236 41.7823 249.132 42.614 248.89 44.1412ZM256.129 44.9275C256.129 42.5837 257.883 40.9355 260.121 40.9355C261.119 40.9355 262.223 41.2833 262.903 42.0242L262.374 42.7954C261.845 42.2511 260.998 41.8579 260.151 41.8579C258.488 41.8579 257.187 43.113 257.187 44.9275C257.187 46.7118 258.488 47.9668 260.181 47.9668C261.058 47.9668 262.011 47.5888 262.616 46.9235L263.085 47.6947C262.419 48.4356 261.285 48.9044 260.121 48.9044C257.868 48.9044 256.129 47.2864 256.129 44.9275ZM264.173 46.6815C264.173 44.1866 267.349 44.0353 268.8 44.0353H269.254V43.8237C269.254 42.3569 268.453 41.8579 267.379 41.8579C266.608 41.8579 265.837 42.1301 265.217 42.5837L264.748 41.7974C265.353 41.2833 266.426 40.9355 267.439 40.9355C269.269 40.9355 270.282 41.9486 270.282 43.8539V48.7229H269.299V47.8308C269.299 47.4527 269.345 47.1957 269.345 47.1957H269.314C268.921 48.1181 267.969 48.9044 266.744 48.9044C265.459 48.9044 264.173 48.1483 264.173 46.6815ZM265.217 46.5908C265.217 47.3015 265.791 48.0424 266.925 48.0424C268.392 48.0424 269.254 46.5303 269.254 45.1997V44.8519H268.815C267.636 44.8519 265.217 44.8973 265.217 46.5908Z" fill="white"/>
</g>
<defs>
<clipPath id="clip0_8139_12381">
<rect width="280" height="49.801" fill="white"/>
</clipPath>
</defs>
</svg>
